<?xml version="1.0" encoding="iso-8859-1"?>
<!-- Generator: Adobe Illustrator 19.0.0, SVG Export Plug-In . SVG Version: 6.00 Build 0)  -->
<svg version="1.1" id="Capa_1" xmlns="http://www.w3.org/2000/svg" xmlns:xlink="http://www.w3.org/1999/xlink" x="0px" y="0px"
	 viewBox="0 0 496 496" style="enable-background:new 0 0 496 496;" xml:space="preserve">
<g>
	<g>
		<path d="M247.12,112.928l1.768,15.904C253.848,128.28,258.936,128,264,128v-16C258.352,112,252.672,112.312,247.12,112.928z"/>
	</g>
</g>
<g>
	<g>
		<path d="M230.232,115.768C160.616,131.56,112,192.52,112,264h16c0-63.96,43.496-118.496,105.776-132.632L230.232,115.768z"/>
	</g>
</g>
<g>
	<g>
		<path d="M467.888,84.104c-8.608-8.608-20.968-12.608-36.752-12.016c2.2-19.064-1.4-34.136-11.248-43.984
			c-25.84-25.848-86.784-9.336-163.2,44.08C156.632,75.952,75.96,156.632,72.184,256.688c-53.416,76.424-69.936,137.352-44.08,163.2
			c8.248,8.248,19.68,12.024,33.456,12.016c0.992,0,2.088-0.168,3.104-0.208c-2.328,19.392,1.488,34.24,11.44,44.192
			c8.048,8.056,19.52,11.96,33.76,11.96c26.368-0.008,62.224-13.472,103.264-38.744C229.344,453.568,246.392,456,264,456
			c105.864,0,192-86.136,192-192c0-19.136-2.848-37.616-8.088-55.072C479.032,154.736,490.864,107.08,467.888,84.104z
			 M408.576,39.416c13.464,13.464,8.552,45.184-11.768,86.128c-29.944-28.736-69.128-47.912-112.624-52.48
			C342.656,35.784,391.328,22.168,408.576,39.416z M264,88c48.864,0,93.128,20.032,125.048,52.296
			c-6.496,11.672-14.088,23.936-22.76,36.648C364.272,176.392,362.192,176,360,176c-13.232,0-24,10.768-24,24
			c0,4.728,1.424,9.12,3.792,12.84c-17.968,22.688-38.088,45.232-59.904,67.048c-43.392,43.392-94.904,83.56-139.8,108.96
			c-21.176-21.016-37.016-47.376-45.384-76.856H144v-16H90.968C89.056,285.616,88,274.928,88,264C88,166.952,166.952,88,264,88z
			 M368,200c0,4.408-3.584,8-8,8c-4.416,0-8-3.592-8-8s3.584-8,8-8C364.416,192,368,195.592,368,200z M39.424,408.576
			c-17.256-17.256-3.648-65.92,33.648-124.392c4.56,43.448,23.696,82.592,52.384,112.52
			C86.472,416.52,54.184,423.328,39.424,408.576z M87.424,464.576c-8.336-8.328-8.272-22.888-6.312-34.936
			c16.896-3.424,36.024-10.768,56.456-21.328c16.312,14.304,35.04,25.888,55.512,34.056
			C139.528,473.016,101.376,478.536,87.424,464.576z M210.664,431.72c-21.424-6.824-41.072-17.64-58.08-31.584
			c45.12-25.856,94.816-65.12,138.616-108.928c22.288-22.288,42.856-45.336,61.232-68.544c2.4,0.8,4.912,1.336,7.568,1.336
			c13.232,0,24-10.768,24-24c0-5.216-1.72-10.016-4.552-13.952c7.824-11.464,14.768-22.552,20.872-33.224
			c13.048,15.968,23.312,34.264,30.144,54.152c-25.48,42.2-62.648,88.992-102.576,128.92c-9.264,9.264-18.848,18.384-28.472,27.128
			C296.008,361.16,292.152,360,288,360c-13.232,0-24,10.768-24,24c0,2.848,0.584,5.544,1.504,8.088
			C246.048,407.776,227.728,420.872,210.664,431.72z M296,384c0,4.416-3.584,8-8,8c-4.416,0-8-3.584-8-8c0-4.416,3.584-8,8-8
			C292.416,376,296,379.584,296,384z M430.816,320H392v16h32.536C396.96,397.24,335.4,440,264,440c-10.992,0-21.728-1.064-32.168-3
			c14.152-9.584,28.8-20.424,43.808-32.536c3.624,2.2,7.824,3.536,12.36,3.536c13.232,0,24-10.768,24-24
			c0-3.232-0.664-6.312-1.824-9.128c9.816-8.92,19.576-18.216,29.024-27.672c37.584-37.584,71.8-79.488,97.096-119.136
			C438.72,239.672,440,251.688,440,264C440,283.576,436.736,302.392,430.816,320z M408.512,137.792
			c9.272-18.024,15.84-34.608,19.576-49.376c12.944-1.12,22.616,1.12,28.496,6.992c15.696,15.712,6.992,51.264-15.84,93.608
			C432.736,170.216,421.784,152.968,408.512,137.792z"/>
	</g>
</g>
<g>
	<g>
		<rect x="56" y="48" width="16" height="16"/>
	</g>
</g>
<g>
	<g>
		<rect x="40" y="64" width="16" height="16"/>
	</g>
</g>
<g>
	<g>
		<rect x="56" y="80" width="16" height="16"/>
	</g>
</g>
<g>
	<g>
		<rect x="72" y="64" width="16" height="16"/>
	</g>
</g>
<g>
	<g>
		<rect y="168" width="16" height="16"/>
	</g>
</g>
<g>
	<g>
		<rect x="176" y="40" width="16" height="16"/>
	</g>
</g>
<g>
	<g>
		<rect x="336" y="464" width="16" height="16"/>
	</g>
</g>
<g>
	<g>
		<rect x="480" y="304" width="16" height="16"/>
	</g>
</g>
<g>
	<g>
		<rect x="160" y="296" width="72" height="16"/>
	</g>
</g>
<g>
	<g>
		<rect x="200" y="224" width="96" height="16"/>
	</g>
</g>
<g>
	<g>
		<rect x="344" y="360" width="40" height="16"/>
	</g>
</g>
<g>
	<g>
		<rect x="272" y="152" width="56" height="16"/>
	</g>
</g>
<g>
	<g>
		<rect x="464" width="16" height="16"/>
	</g>
</g>
<g>
	<g>
		<rect x="448" y="16" width="16" height="16"/>
	</g>
</g>
<g>
	<g>
		<rect x="464" y="32" width="16" height="16"/>
	</g>
</g>
<g>
	<g>
		<rect x="480" y="16" width="16" height="16"/>
	</g>
</g>
<g>
	<g>
		<rect x="432" y="400" width="16" height="16"/>
	</g>
</g>
<g>
	<g>
		<rect x="416" y="416" width="16" height="16"/>
	</g>
</g>
<g>
	<g>
		<rect x="432" y="432" width="16" height="16"/>
	</g>
</g>
<g>
	<g>
		<rect x="448" y="416" width="16" height="16"/>
	</g>
</g>
<g>
	<g>
		<rect x="16" y="448" width="16" height="16"/>
	</g>
</g>
<g>
	<g>
		<rect y="464" width="16" height="16"/>
	</g>
</g>
<g>
	<g>
		<rect x="16" y="480" width="16" height="16"/>
	</g>
</g>
<g>
	<g>
		<rect x="32" y="464" width="16" height="16"/>
	</g>
</g>
<g>
</g>
<g>
</g>
<g>
</g>
<g>
</g>
<g>
</g>
<g>
</g>
<g>
</g>
<g>
</g>
<g>
</g>
<g>
</g>
<g>
</g>
<g>
</g>
<g>
</g>
<g>
</g>
<g>
</g>
</svg>
