<svg viewBox="0 0 511 511.99998" xmlns="http://www.w3.org/2000/svg"><path d="m143.917969 223.019531c-1.859375 1.859375-2.929688 4.441407-2.929688 7.078125 0 2.632813 1.070313 5.203125 2.929688 7.0625 1.859375 1.871094 4.441406 2.929688 7.070312 2.929688 2.628907 0 5.210938-1.058594 7.070313-2.929688 1.859375-1.859375 2.929687-4.429687 2.929687-7.0625 0-2.636718-1.070312-5.21875-2.929687-7.078125s-4.441406-2.917969-7.070313-2.917969c-2.628906 0-5.210937 1.058594-7.070312 2.917969zm0 0"/><path d="m316.4375 368.089844c2.628906 0 5.210938-1.070313 7.070312-2.9375 1.859376-1.863282 2.929688-4.429688 2.929688-7.070313 0-2.621093-1.070312-5.199219-2.929688-7.070312-1.859374-1.859375-4.441406-2.917969-7.070312-2.917969s-5.210938 1.058594-7.070312 2.917969c-1.859376 1.871093-2.929688 4.441406-2.929688 7.070312 0 2.640625 1.070312 5.207031 2.929688 7.070313 1.859374 1.867187 4.4375 2.9375 7.070312 2.9375zm0 0"/><path d="m446.71875 436.253906c-14.902344 0-28.925781 4.933594-40.25 13.730469v-17.90625h22c16.542969 0 30-13.457031 30-29.996094v-24c0-16.539062-13.457031-29.996093-30-29.996093h-22v-35.921876h22c16.542969 0 30-13.457031 30-30v-32.070312c0-16.542969-13.457031-30-30-30h-237.023438c-5.523437 0-10 4.480469-10 10 0 5.523438 4.476563 10 10 10h237.023438c5.515625 0 10 4.484375 10 10v32.070312c0 5.515626-4.484375 10-10 10h-397.972656c-5.511719 0-9.996094-4.484374-9.996094-10v-32.070312c0-5.515625 4.484375-10 9.996094-10h76.289062c5.523438 0 10-4.476562 10-10 0-5.519531-4.476562-10-10-10h-76.289062c-16.539063 0-29.996094 13.457031-29.996094 30v32.070312c0 16.542969 13.457031 30 29.996094 30h24v35.921876h-24c-16.539063 0-29.996094 13.457031-29.996094 29.996093v24c0 16.539063 13.457031 29.996094 29.996094 29.996094h24v69.921875c0 5.523438 4.476562 10 10 10 5.523437 0 10-4.476562 10-10v-69.921875h311.976562v20.925781c-5.519531-1.960937-11.390625-2.988281-17.4375-2.988281-28.664062 0-51.984375 23.320313-51.984375 51.984375 0 5.519531 4.476563 10 10 10h175.410157c5.523437 0 10-4.480469 10-10 .003906-36.25-29.492188-65.746094-65.742188-65.746094zm-426.21875-34.171875v-24c0-5.511719 4.484375-9.996093 9.996094-9.996093h244.984375c5.523437 0 10-4.480469 10-10 0-5.523438-4.476563-10-10-10h-200.984375v-35.921876h311.976562v35.921876h-28.039062c-5.523438 0-10 4.476562-10 10 0 5.519531 4.476562 10 10 10h70.035156c5.515625 0 10 4.484374 10 9.996093v24c0 5.511719-4.484375 10-10 10h-397.972656c-5.511719 0-9.996094-4.488281-9.996094-10zm318.148438 89.917969c4.207031-12.753906 16.238281-21.984375 30.386718-21.984375 8.738282 0 16.902344 3.46875 22.988282 9.761719 2.148437 2.222656 5.203124 3.324218 8.273437 2.992187 3.070313-.335937 5.8125-2.070312 7.433594-4.699219 8.40625-13.660156 22.980469-21.816406 38.988281-21.816406 21.789062 0 40.070312 15.316406 44.644531 35.75h-152.714843zm0 0"/><path d="m332.265625 29.820312c7.910156 2.652344 14.828125 7.136719 20.5625 13.316407 17.832031 19.230469 17.558594 49.121093-.617187 68.050781-3.746094 3.898438-8.042969 7.132812-12.769532 9.609375-5.386718 2.820313-8.304687 8.742187-7.257812 14.734375 1.050781 6.023438 5.820312 10.628906 11.875 11.460938 3.34375.460937 6.691406.6875 10.023437.6875 20.125 0 39.648438-8.25 53.675781-23.035157 13.003907-13.703125 20.160157-31.753906 20.148438-50.820312-.007812-19.066407-7.179688-37.109375-20.195312-50.800781-19.382813-20.386719-48.144532-27.964844-75.058594-19.785157-5.820313 1.769531-9.792969 7.058594-9.878906 13.15625-.085938 6.097657 3.726562 11.492188 9.492187 13.425781zm60.949219 6.980469c19.734375 20.761719 19.75 53.300781.035156 74.078125-7.628906 8.042969-17.488281 13.433594-28.097656 15.65625.5-.488281.996094-.988281 1.480468-1.496094 25.507813-26.558593 25.882813-68.507812.855469-95.496093-3.273437-3.53125-6.902343-6.710938-10.804687-9.480469 13.648437.613281 26.734375 6.429688 36.53125 16.738281zm0 0"/><path d="m237.484375 147.683594h8.996094v9c0 5.523437 4.476562 10 10 10 5.523437 0 10-4.476563 10-10v-9h9c5.523437 0 10-4.476563 10-9.996094 0-5.523438-4.476563-10-10-10h-9v-9c0-5.523438-4.476563-10-10-10-5.523438 0-10 4.476562-10 10v9h-8.996094c-5.523437 0-10 4.476562-10 10 0 5.519531 4.476563 9.996094 10 9.996094zm0 0"/><path d="m135.492188 60.03125h8.996093v9c0 5.523438 4.476563 10 10 10 5.523438 0 10-4.476562 10-10v-9h9c5.523438 0 10-4.476562 10-9.996094 0-5.523437-4.476562-10-10-10h-9v-9c0-5.523437-4.476562-10-10-10-5.523437 0-10 4.476563-10 10v9h-8.996093c-5.523438 0-10 4.476563-10 10 0 5.519532 4.476562 9.996094 10 9.996094zm0 0"/></svg>