<?xml version="1.0" encoding="utf-8"?>
<!-- Generator: Adobe Illustrator 22.1.0, SVG Export Plug-In . SVG Version: 6.00 Build 0)  -->
<svg version="1.1" id="Capa_1" xmlns="http://www.w3.org/2000/svg" xmlns:xlink="http://www.w3.org/1999/xlink" x="0px" y="0px"
	 viewBox="0 0 608.3 525.2" style="enable-background:new 0 0 608.3 525.2;" xml:space="preserve">
<style type="text/css">
	.st0{fill:#001CA8;}
</style>
<path class="st0" d="M518.1,76C460.7,27,384.7,0,304,0C223.3,0,147.3,27,89.9,76C35.2,122.9,3.3,185.4,0.2,252.2C-2.6,313.1,19.1,372.8,61.4,421
	c-5.1,11.7-11.5,22.4-22.4,32.7C21.4,470.2,8.8,483,9.9,497.3c1.4,17.5,29.2,23,36.5,24.3c12.5,2.1,30.8,4.1,51,1
	c27.4-4.2,32.8-2.5,72-24.4c41.6,17.7,88,27.1,134.4,27.1c39.4,0,77.9-6.5,114.3-19.2c37.5-13.1,71.2-32.2,100-56.9
	c58.1-49.7,90.1-115.9,90.1-186.6C608.3,192.1,576.2,125.8,518.1,76z M147.1,441.9C146.5,442.3,147.7,441.4,147.1,441.9
	c-7.9,5.2-35.6,19.6-44.3,23.1c4.6-6.6,25-26.2,28.8-33.6l0.2-0.4c3.1-6.4,3.8-13.3,2.2-20c-1.1-6.1-4.2-12-8.7-16.5l-0.1-0.1
	C86,356.6,65.3,308,66.8,257.5c1.6-51.2,25.8-99.4,68.3-135.8c93.1-79.6,244.5-79.6,337.5,0c44.2,37.7,68.5,87.7,68.5,140.8
	c0,53.1-24.3,103.1-68.4,140.8c-76.9,65.7-195.6,81.9-289.3,34.8c-4.9-2.5-9.2-3.8-14.8-3.8C161,434.5,154.3,437.7,147.1,441.9z"/>
<circle class="st0" cx="305.4" cy="262.7" r="33.4"/>
<circle class="st0" cx="420.2" cy="262.6" r="33.4"/>
<circle class="st0" cx="187.7" cy="262.7" r="33.4"/>
</svg>
